<?xml version="1.0" standalone="no"?>
<!DOCTYPE svg PUBLIC "-//W3C//DTD SVG 20010904//EN"
 "http://www.w3.org/TR/2001/REC-SVG-20010904/DTD/svg10.dtd">
<svg version="1.0" xmlns="http://www.w3.org/2000/svg"
 width="980.000000pt" height="980.000000pt" viewBox="0 0 980.000000 980.000000"
 preserveAspectRatio="xMidYMid meet">

<g transform="translate(0.000000,980.000000) scale(0.100000,-0.100000)"
fill="#f2fdfa" stroke="none">
<path d="M4560 9789 c-1035 -75 -1998 -463 -2800 -1128 -150 -123 -501 -475
-622 -621 -881 -1068 -1270 -2403 -1098 -3765 119 -934 501 -1801 1124 -2545
98 -117 370 -393 496 -504 1310 -1150 3104 -1521 4760 -984 1113 361 2076
1129 2686 2144 503 838 746 1840 684 2819 -70 1094 -491 2109 -1216 2935 -112
128 -386 398 -509 501 -762 642 -1665 1026 -2665 1134 -174 19 -664 27 -840
14z m761 -455 c1240 -117 2371 -748 3128 -1744 424 -557 710 -1208 835 -1900
52 -286 61 -399 61 -790 0 -292 -4 -394 -18 -510 -111 -889 -445 -1665 -1015
-2353 -103 -125 -363 -388 -496 -504 -611 -527 -1340 -876 -2126 -1017 -252
-45 -382 -57 -695 -63 -392 -7 -625 12 -961 78 -392 77 -730 192 -1109 380
-434 214 -782 461 -1128 799 -394 384 -674 772 -906 1252 -237 490 -375 983
-425 1517 -21 217 -21 625 0 842 118 1247 751 2377 1762 3142 629 477 1433
792 2207 867 61 5 124 12 140 14 96 11 598 4 746 -10z"/>
<path d="M5730 7149 c-213 -38 -387 -128 -551 -286 -206 -199 -321 -454 -344
-763 -6 -75 6 -245 21 -305 5 -21 3 -22 -48 -18 -616 52 -1218 307 -1703 723
-113 97 -320 310 -404 415 -35 44 -67 81 -71 83 -19 7 -101 -218 -127 -347
-23 -116 -23 -337 0 -454 55 -274 197 -520 400 -689 68 -56 63 -58 -74 -32
-105 20 -153 36 -262 86 -48 23 -89 39 -92 36 -3 -3 -1 -53 5 -112 48 -472
331 -849 746 -995 l107 -38 -44 -12 c-59 -17 -311 -26 -376 -13 -63 11 -63 11
-28 -77 153 -391 485 -658 885 -711 47 -7 86 -13 87 -14 1 -1 -41 -33 -93 -71
-277 -204 -601 -338 -945 -392 -118 -18 -463 -25 -524 -10 l-30 8 24 -19 c44
-35 226 -140 346 -200 230 -114 465 -195 715 -245 228 -46 300 -52 595 -51
294 0 428 14 660 65 873 193 1597 776 2025 1630 234 466 353 941 367 1464 l6
220 64 50 c100 78 291 279 381 400 45 61 82 113 82 116 0 4 -45 -11 -100 -33
-116 -45 -287 -91 -412 -111 -49 -8 -88 -13 -88 -12 0 1 34 28 75 59 140 108
244 239 324 407 78 164 80 159 -41 95 -135 -72 -308 -139 -458 -177 l-121 -31
-77 74 c-135 129 -286 215 -467 265 -72 20 -119 25 -235 28 -80 2 -170 0 -200
-6z"/>
</g>
</svg>
