<?xml version="1.0" standalone="no"?>
<!DOCTYPE svg PUBLIC "-//W3C//DTD SVG 20010904//EN"
 "http://www.w3.org/TR/2001/REC-SVG-20010904/DTD/svg10.dtd">
<svg version="1.0" xmlns="http://www.w3.org/2000/svg"
 width="1000.000000pt" height="1000.000000pt" viewBox="0 0 1000.000000 1000.000000"
 preserveAspectRatio="xMidYMid meet">
<metadata>
Created by potrace 1.16, written by Peter Selinger 2001-2019
</metadata>
<g transform="translate(0.000000,1000.000000) scale(0.100000,-0.100000)"
fill="#f2fdfa" stroke="none">
<path d="M4870 7884 c-137 -29 -155 -42 -1430 -1038 -668 -522 -1239 -972
-1268 -1000 -31 -30 -66 -78 -85 -116 l-32 -65 0 -1635 0 -1635 33 -67 c41
-84 128 -167 209 -200 l58 -23 2645 0 2645 0 58 23 c81 33 168 116 209 200
l33 67 0 1635 0 1635 -28 61 c-18 39 -49 81 -85 116 -31 30 -408 329 -837 664
-429 334 -978 763 -1220 952 -309 242 -461 355 -510 378 -126 61 -261 77 -395
48z m390 -1065 c165 -20 320 -71 443 -146 82 -49 223 -192 270 -273 21 -36 50
-101 64 -145 24 -73 27 -94 27 -240 1 -188 -10 -241 -80 -385 -40 -79 -62
-109 -138 -186 -104 -104 -186 -152 -312 -180 -136 -30 -286 -3 -327 60 -9 12
-20 41 -27 64 l-11 42 -57 -58 c-65 -66 -121 -95 -213 -112 -183 -34 -350 46
-410 196 -20 52 -23 76 -24 194 0 114 4 147 23 210 34 110 86 196 166 276 114
114 237 162 383 151 105 -8 181 -48 229 -122 9 -14 20 -25 24 -25 4 0 12 25
19 55 l12 55 105 0 c64 0 104 -4 104 -10 0 -6 -34 -147 -76 -313 -106 -420
-105 -415 -89 -453 17 -42 42 -54 105 -54 144 0 311 162 380 370 30 89 38 259
17 357 -26 122 -69 197 -166 293 -98 97 -177 144 -316 186 -85 26 -102 28
-285 28 -183 1 -201 -1 -292 -26 -418 -117 -687 -470 -688 -901 0 -255 85
-449 263 -598 304 -255 854 -266 1261 -25 l76 45 39 -58 40 -58 -77 -50 c-144
-95 -284 -152 -462 -190 -115 -24 -387 -24 -513 1 -375 73 -662 301 -768 609
-37 108 -49 187 -49 328 0 181 35 329 115 489 107 213 326 416 551 510 202 84
446 117 664 89z m-1995 -2028 c892 -697 926 -725 908 -742 -31 -30 -1838
-1439 -1845 -1439 -5 0 -8 655 -8 1456 0 902 4 1454 9 1452 6 -1 427 -329 936
-727z m4415 -726 c0 -800 -3 -1455 -8 -1455 -7 0 -1813 1408 -1845 1439 -18
17 17 45 910 744 510 399 931 726 935 727 4 0 8 -655 8 -1455z m-2490 78 c41
-13 98 -39 126 -56 28 -18 532 -408 1119 -867 l1068 -835 -1251 -3 c-689 -1
-1815 -1 -2504 0 l-1251 3 1068 835 c588 459 1089 848 1113 864 149 94 341
116 512 59z"/>
<path d="M4912 6114 c-62 -31 -133 -107 -172 -184 -81 -161 -87 -389 -12 -474
47 -53 149 -70 238 -39 139 47 256 269 258 488 1 78 -2 97 -24 140 -49 94
-176 125 -288 69z"/>
</g>
</svg>
