<?xml version="1.0" standalone="yes"?>
<svg xmlns="http://www.w3.org/2000/svg" width="512" height="512">
<path style="fill:#ffffff; stroke:none;" d="M0 0L0 234L1 234C1.06194 140.466 76.7942 51.7514 160 18.2006C182.939 8.95102 209.066 1.01645 234 1L212 0L165 0L0 0z"/>
<path style="fill:#010101; stroke:none;" d="M234 0.424377C189.663 6.24857 148.271 18.0651 111 43.885C82.5685 63.5815 57.8491 88.7497 39.3194 118C-46.4992 253.47 15.2879 442.908 168 497.308C208.466 511.723 252.499 515.74 295 509.715C330.089 504.74 364.131 491.602 394 472.681C418.629 457.079 440.656 436.99 458.576 414C544.329 303.981 524.148 139.279 414 53.4244C388.074 33.2164 358.571 18.3551 327 9.29089C297.919 0.941711 264.215 -3.54474 234 0.424377z"/>
<path style="fill:#ffffff; stroke:none;" d="M278 0L278 1C302.934 1.01645 329.061 8.95102 352 18.2006C435.206 51.7513 510.938 140.466 511 234L512 234L512 0L278 0M234 16.4244C193.84 21.762 155.849 32.9489 122 56.0286C95.0902 74.3768 70.7268 98.2774 53.4252 126C-14.4445 234.748 13.362 378.295 118 453.14C138.507 467.809 161.841 479.081 186 486.279C220.55 496.574 257.367 498.767 293 493.715C325.06 489.169 355.408 477.044 383 460.399C406.015 446.515 426.401 427.751 443.386 407C527.94 303.693 507.565 143.826 401 63.8951C376.389 45.4352 348.693 31.8542 319 23.8488C292.277 16.6438 261.638 12.7511 234 16.4244z"/>
<path style="fill:#010101; stroke:none;" d="M300.019 41.7423C293.938 43.5941 292.395 51.2602 297.228 55.348C302.134 59.4971 317.762 63.8828 323.891 61.2577C328.623 59.2313 329.252 51.9015 325.682 48.51C321.497 44.5338 305.572 40.051 300.019 41.7423M354.105 62.8619C346.299 66.2549 349.821 74.6678 355.043 78.304C382.978 97.7539 407.886 116.897 426.691 146C431.108 152.835 439.113 175.705 449.892 170.987C462.271 165.568 445.019 143.417 440.947 137C425.47 112.614 404.764 91.3971 381 75.0255C374.947 70.8556 361.953 59.4504 354.105 62.8619M367 255L367 257C348.428 262.463 330.03 276.459 313 285.691C272.542 307.625 232.686 332.537 191 352C188.025 339.506 190 324.812 190 312L190 235C190 211.509 185.562 182.843 191 160C225.447 176.083 258.743 196.415 292 214.861C298.854 218.663 320.906 235.712 326.972 224.891C333.46 213.319 307.255 204.074 300 200.22C273.853 186.331 248.029 171.802 222 157.691C211.943 152.239 199.163 141.582 187 144.533C168.745 148.963 174 177.164 174 191L174 323C174 336.224 169.357 360.724 185 366.852C200.04 372.743 221.378 354.485 234 347.78C267.195 330.147 299.805 311.413 333 293.78C346.587 286.563 369.35 278.922 379.058 266.816C390.131 253.006 376.297 241.812 365 235.691C360.661 233.34 355.261 229.117 350.019 230.934C344.597 232.812 343.374 239.332 346.728 243.671C350.699 248.806 360.9 253.206 367 255z"/>
<path style="fill:#ffffff; stroke:none;" d="M0 278L0 512L234 512L234 511C145.454 510.941 58.8935 441.509 23.3086 364C15.2642 346.478 8.85946 327.91 5.00386 309C3.05395 299.437 3.69645 286.806 0 278M511 278C510.984 302.934 503.049 329.061 493.799 352C460.249 435.206 371.534 510.938 278 511L278 512L512 512L512 347L512 300L511 278z"/>
<path style="fill:#010101; stroke:none;" d="M63.044 340.668C58.0087 342.181 56.8089 347.481 58.3434 352C61.6983 361.881 68.5833 371.395 74.3333 380C92.7186 407.514 117.643 429.62 146 446.397C152.709 450.366 167.88 461.309 175.956 458.243C182.424 455.788 181.941 447.389 176.941 443.815C167.577 437.122 155.778 433.2 146 426.91C124.294 412.948 104.695 394.237 90.0255 373C84.9402 365.638 73.9277 337.398 63.044 340.668z"/>
</svg>
